<svg width="12" height="12" viewBox="0 0 12 12" fill="none" xmlns="http://www.w3.org/2000/svg">
<path fill-rule="evenodd" clip-rule="evenodd" d="M0.666626 0.666667C0.666626 0.489856 0.736864 0.320286 0.861888 0.195262C0.986913 0.0702379 1.15648 2.82732e-10 1.33329 2.82732e-10H2.33329C2.48649 -4.45962e-06 2.63502 0.0527551 2.75389 0.149403C2.87275 0.246051 2.95471 0.380689 2.98596 0.530667L3.29263 2H10.6666C10.7657 2 10.8636 2.02208 10.953 2.06465C11.0425 2.10722 11.1214 2.1692 11.1839 2.24608C11.2464 2.32296 11.291 2.41281 11.3144 2.50909C11.3378 2.60537 11.3395 2.70566 11.3193 2.80267L10.486 6.80267C10.4547 6.95265 10.3728 7.08728 10.2539 7.18393C10.135 7.28058 9.98649 7.33334 9.83329 7.33333H4.40329L4.54196 8H9.33329C9.7578 8.00022 10.1712 8.13551 10.5137 8.38629C10.8563 8.63707 11.1101 8.99032 11.2385 9.39494C11.367 9.79955 11.3633 10.2345 11.2281 10.6369C11.0929 11.0393 10.8332 11.3883 10.4865 11.6333C10.1398 11.8783 9.72421 12.0066 9.29976 11.9997C8.8753 11.9928 8.46406 11.8511 8.12552 11.5949C7.78699 11.3388 7.53874 10.9816 7.41669 10.575C7.29464 10.1684 7.30512 9.73356 7.44663 9.33333H5.88663C6.0164 9.70114 6.03581 10.0989 5.94245 10.4775C5.84909 10.8562 5.64704 11.1994 5.36117 11.4647C5.07531 11.73 4.7181 11.906 4.33351 11.9709C3.94893 12.0358 3.55375 11.9869 3.19663 11.8301C2.8395 11.6733 2.53601 11.4155 2.32351 11.0885C2.111 10.7614 1.99877 10.3794 2.00061 9.98936C2.00245 9.59934 2.11829 9.21837 2.33387 8.89334C2.54945 8.56831 2.85537 8.3134 3.21396 8.16L1.79063 1.33333H1.33329C1.15648 1.33333 0.986913 1.2631 0.861888 1.13807C0.736864 1.01305 0.666626 0.843478 0.666626 0.666667Z" fill="#DEE2EB"/>
</svg>
